# Blender v2.77 (sub 0) OBJ File: ''
# www.blender.org
mtllib kite.mtl
o Plane
v -1.414214 0.000000 0.000000
v -0.000000 -1.414214 0.000000
v 0.000000 1.414214 -0.000000
v 1.414214 -0.000000 -0.000000
v -1.414214 0.000000 -0.010000
v -0.000000 -1.414214 -0.010000
v 0.000000 1.414214 -0.010000
v 1.414214 -0.000000 -0.010000
vt 0.999900 0.000100
vt 0.000100 0.999900
vt 0.000100 0.000100
vt 0.999900 0.999900
vt 0.000100 0.000100
vt 0.000100 0.999900
vt 0.999900 0.000100
vt 0.999900 0.999900
vn 0.000000 0.000000 1.000000
vn -0.000000 -0.000000 -1.000000
vn -0.707100 0.707100 0.000000
vn -0.707100 -0.707100 0.000000
vn 0.707100 -0.707100 0.000000
vn 0.707100 0.707100 -0.000000
usemtl None
s off
f 2/1/1 3/2/1 1/3/1
f 8/4/2 5/5/2 7/6/2
f 3/2/3 5/5/3 1/3/3
f 1/3/4 6/7/4 2/1/4
f 2/1/5 8/4/5 4/8/5
f 4/8/6 7/6/6 3/2/6
f 2/1/1 4/8/1 3/2/1
f 8/4/2 6/7/2 5/5/2
f 3/2/3 7/6/3 5/5/3
f 1/3/4 5/5/4 6/7/4
f 2/1/5 6/7/5 8/4/5
f 4/8/6 8/4/6 7/6/6
